<mxfile host="app.diagrams.net" modified="2024-07-24T17:12:12.345Z" agent="Mozilla/5.0 (Windows NT 10.0; Win64; x64) AppleWebKit/537.36 (KHTML, like Gecko) Chrome/126.0.0.0 Safari/537.36" etag="RTHHZwykhjveR0hkMyd3" version="24.7.1" type="device" pages="2">
  <diagram id="R2lEEEUBdFMjLlhIrx00" name="Page-1">
    <mxGraphModel dx="2207" dy="743" grid="1" gridSize="10" guides="1" tooltips="1" connect="1" arrows="1" fold="1" page="1" pageScale="1" pageWidth="850" pageHeight="1100" math="0" shadow="0" extFonts="Permanent Marker^https://fonts.googleapis.com/css?family=Permanent+Marker">
      <root>
        <mxCell id="0" />
        <mxCell id="1" parent="0" />
        <mxCell id="CTaRILC3Ur2w_jWTwv6U-32" value="" style="edgeStyle=none;curved=1;rounded=0;orthogonalLoop=1;jettySize=auto;html=1;fontSize=12;startSize=8;endSize=8;" edge="1" parent="1" source="CTaRILC3Ur2w_jWTwv6U-1" target="CTaRILC3Ur2w_jWTwv6U-21">
          <mxGeometry relative="1" as="geometry" />
        </mxCell>
        <mxCell id="CTaRILC3Ur2w_jWTwv6U-33" value="" style="edgeStyle=none;curved=1;rounded=0;orthogonalLoop=1;jettySize=auto;html=1;fontSize=12;startSize=8;endSize=8;" edge="1" parent="1" source="CTaRILC3Ur2w_jWTwv6U-1" target="CTaRILC3Ur2w_jWTwv6U-20">
          <mxGeometry relative="1" as="geometry" />
        </mxCell>
        <mxCell id="CTaRILC3Ur2w_jWTwv6U-1" value="STAFF DETAILS" style="rounded=0;whiteSpace=wrap;html=1;" vertex="1" parent="1">
          <mxGeometry x="100" y="130" width="120" height="60" as="geometry" />
        </mxCell>
        <mxCell id="CTaRILC3Ur2w_jWTwv6U-2" value="ASSIGNMENT DETAILS" style="rounded=0;whiteSpace=wrap;html=1;" vertex="1" parent="1">
          <mxGeometry x="740" y="460" width="120" height="60" as="geometry" />
        </mxCell>
        <mxCell id="CTaRILC3Ur2w_jWTwv6U-40" value="" style="edgeStyle=none;curved=1;rounded=0;orthogonalLoop=1;jettySize=auto;html=1;fontSize=12;startSize=8;endSize=8;" edge="1" parent="1" source="CTaRILC3Ur2w_jWTwv6U-3" target="CTaRILC3Ur2w_jWTwv6U-39">
          <mxGeometry relative="1" as="geometry" />
        </mxCell>
        <mxCell id="CTaRILC3Ur2w_jWTwv6U-41" value="" style="edgeStyle=none;curved=1;rounded=0;orthogonalLoop=1;jettySize=auto;html=1;fontSize=12;startSize=8;endSize=8;" edge="1" parent="1" source="CTaRILC3Ur2w_jWTwv6U-3" target="CTaRILC3Ur2w_jWTwv6U-39">
          <mxGeometry relative="1" as="geometry" />
        </mxCell>
        <mxCell id="CTaRILC3Ur2w_jWTwv6U-3" value="SHIFT DETAILS" style="rounded=0;whiteSpace=wrap;html=1;" vertex="1" parent="1">
          <mxGeometry x="370" y="280" width="120" height="60" as="geometry" />
        </mxCell>
        <mxCell id="CTaRILC3Ur2w_jWTwv6U-4" value="One to Many" style="rhombus;whiteSpace=wrap;html=1;" vertex="1" parent="1">
          <mxGeometry x="120" y="270" width="80" height="80" as="geometry" />
        </mxCell>
        <mxCell id="CTaRILC3Ur2w_jWTwv6U-12" value="" style="endArrow=classic;html=1;rounded=0;fontSize=12;startSize=8;endSize=8;curved=1;exitX=0.528;exitY=1.172;exitDx=0;exitDy=0;exitPerimeter=0;entryX=0.5;entryY=0;entryDx=0;entryDy=0;" edge="1" parent="1" target="CTaRILC3Ur2w_jWTwv6U-4">
          <mxGeometry width="50" height="50" relative="1" as="geometry">
            <mxPoint x="161.0899999999999" y="189.99999999999994" as="sourcePoint" />
            <mxPoint x="163" y="270" as="targetPoint" />
            <Array as="points" />
          </mxGeometry>
        </mxCell>
        <mxCell id="CTaRILC3Ur2w_jWTwv6U-13" value="" style="endArrow=classic;html=1;rounded=0;fontSize=12;startSize=8;endSize=8;curved=1;exitX=0.528;exitY=1.172;exitDx=0;exitDy=0;exitPerimeter=0;entryX=0;entryY=0.5;entryDx=0;entryDy=0;" edge="1" parent="1" target="CTaRILC3Ur2w_jWTwv6U-3">
          <mxGeometry width="50" height="50" relative="1" as="geometry">
            <mxPoint x="201.0899999999999" y="309.99999999999994" as="sourcePoint" />
            <mxPoint x="200" y="390" as="targetPoint" />
            <Array as="points" />
          </mxGeometry>
        </mxCell>
        <mxCell id="CTaRILC3Ur2w_jWTwv6U-15" value="One to One" style="rhombus;whiteSpace=wrap;html=1;" vertex="1" parent="1">
          <mxGeometry x="760" y="270" width="80" height="80" as="geometry" />
        </mxCell>
        <mxCell id="CTaRILC3Ur2w_jWTwv6U-16" value="" style="endArrow=classic;html=1;rounded=0;fontSize=12;startSize=8;endSize=8;curved=1;entryX=0;entryY=0.5;entryDx=0;entryDy=0;exitX=1;exitY=0.5;exitDx=0;exitDy=0;" edge="1" parent="1" source="CTaRILC3Ur2w_jWTwv6U-3" target="CTaRILC3Ur2w_jWTwv6U-15">
          <mxGeometry width="50" height="50" relative="1" as="geometry">
            <mxPoint x="400" y="310" as="sourcePoint" />
            <mxPoint x="450" y="260" as="targetPoint" />
          </mxGeometry>
        </mxCell>
        <mxCell id="CTaRILC3Ur2w_jWTwv6U-17" value="" style="endArrow=classic;html=1;rounded=0;fontSize=12;startSize=8;endSize=8;curved=1;entryX=0.5;entryY=0;entryDx=0;entryDy=0;exitX=0.5;exitY=1;exitDx=0;exitDy=0;" edge="1" parent="1" source="CTaRILC3Ur2w_jWTwv6U-15" target="CTaRILC3Ur2w_jWTwv6U-2">
          <mxGeometry width="50" height="50" relative="1" as="geometry">
            <mxPoint x="490" y="320" as="sourcePoint" />
            <mxPoint x="550" y="320" as="targetPoint" />
          </mxGeometry>
        </mxCell>
        <mxCell id="CTaRILC3Ur2w_jWTwv6U-28" value="" style="edgeStyle=none;curved=1;rounded=0;orthogonalLoop=1;jettySize=auto;html=1;fontSize=12;startSize=8;endSize=8;" edge="1" parent="1" source="CTaRILC3Ur2w_jWTwv6U-18" target="CTaRILC3Ur2w_jWTwv6U-24">
          <mxGeometry relative="1" as="geometry" />
        </mxCell>
        <mxCell id="CTaRILC3Ur2w_jWTwv6U-18" value="ADMIN DETAILS" style="rounded=1;whiteSpace=wrap;html=1;" vertex="1" parent="1">
          <mxGeometry x="610" y="140" width="120" height="60" as="geometry" />
        </mxCell>
        <mxCell id="CTaRILC3Ur2w_jWTwv6U-20" value="STAFF ID(PK)" style="ellipse;whiteSpace=wrap;html=1;" vertex="1" parent="1">
          <mxGeometry x="-70" y="110" width="120" height="60" as="geometry" />
        </mxCell>
        <mxCell id="CTaRILC3Ur2w_jWTwv6U-21" value="STAFF NAME" style="ellipse;whiteSpace=wrap;html=1;" vertex="1" parent="1">
          <mxGeometry x="110" y="40" width="120" height="60" as="geometry" />
        </mxCell>
        <mxCell id="CTaRILC3Ur2w_jWTwv6U-22" value="DEPARTMENT" style="ellipse;whiteSpace=wrap;html=1;" vertex="1" parent="1">
          <mxGeometry x="290" y="50" width="120" height="60" as="geometry" />
        </mxCell>
        <mxCell id="CTaRILC3Ur2w_jWTwv6U-23" value="ADMIN NAME" style="ellipse;whiteSpace=wrap;html=1;" vertex="1" parent="1">
          <mxGeometry x="790" y="150" width="120" height="60" as="geometry" />
        </mxCell>
        <mxCell id="CTaRILC3Ur2w_jWTwv6U-24" value="DEPARTMENT" style="ellipse;whiteSpace=wrap;html=1;" vertex="1" parent="1">
          <mxGeometry x="530" y="50" width="120" height="60" as="geometry" />
        </mxCell>
        <mxCell id="CTaRILC3Ur2w_jWTwv6U-25" value="ADMIN ID" style="ellipse;whiteSpace=wrap;html=1;" vertex="1" parent="1">
          <mxGeometry x="730" y="50" width="120" height="60" as="geometry" />
        </mxCell>
        <mxCell id="CTaRILC3Ur2w_jWTwv6U-26" value="" style="endArrow=classic;html=1;rounded=0;fontSize=12;startSize=8;endSize=8;curved=1;" edge="1" parent="1">
          <mxGeometry width="50" height="50" relative="1" as="geometry">
            <mxPoint x="720" y="140" as="sourcePoint" />
            <mxPoint x="760" y="110" as="targetPoint" />
          </mxGeometry>
        </mxCell>
        <mxCell id="CTaRILC3Ur2w_jWTwv6U-27" value="" style="endArrow=classic;html=1;rounded=0;fontSize=12;startSize=8;endSize=8;curved=1;entryX=0.022;entryY=0.361;entryDx=0;entryDy=0;entryPerimeter=0;" edge="1" parent="1" target="CTaRILC3Ur2w_jWTwv6U-23">
          <mxGeometry width="50" height="50" relative="1" as="geometry">
            <mxPoint x="730" y="150" as="sourcePoint" />
            <mxPoint x="770" y="120" as="targetPoint" />
          </mxGeometry>
        </mxCell>
        <mxCell id="CTaRILC3Ur2w_jWTwv6U-31" value="" style="endArrow=classic;html=1;rounded=0;fontSize=12;startSize=8;endSize=8;curved=1;entryX=0.211;entryY=0.883;entryDx=0;entryDy=0;entryPerimeter=0;" edge="1" parent="1" target="CTaRILC3Ur2w_jWTwv6U-22">
          <mxGeometry width="50" height="50" relative="1" as="geometry">
            <mxPoint x="220" y="140" as="sourcePoint" />
            <mxPoint x="290" y="110" as="targetPoint" />
          </mxGeometry>
        </mxCell>
        <mxCell id="CTaRILC3Ur2w_jWTwv6U-34" value="STAFF ID" style="ellipse;whiteSpace=wrap;html=1;" vertex="1" parent="1">
          <mxGeometry x="510" y="570" width="120" height="80" as="geometry" />
        </mxCell>
        <mxCell id="CTaRILC3Ur2w_jWTwv6U-44" value="" style="edgeStyle=none;curved=1;rounded=0;orthogonalLoop=1;jettySize=auto;html=1;fontSize=12;startSize=8;endSize=8;exitX=0.7;exitY=0.083;exitDx=0;exitDy=0;exitPerimeter=0;entryX=0.667;entryY=1.017;entryDx=0;entryDy=0;entryPerimeter=0;" edge="1" parent="1" source="CTaRILC3Ur2w_jWTwv6U-3" target="CTaRILC3Ur2w_jWTwv6U-35">
          <mxGeometry relative="1" as="geometry" />
        </mxCell>
        <mxCell id="CTaRILC3Ur2w_jWTwv6U-35" value="SHIFT ID" style="ellipse;whiteSpace=wrap;html=1;" vertex="1" parent="1">
          <mxGeometry x="280" y="210" width="90" height="60" as="geometry" />
        </mxCell>
        <mxCell id="CTaRILC3Ur2w_jWTwv6U-49" value="" style="edgeStyle=none;curved=1;rounded=0;orthogonalLoop=1;jettySize=auto;html=1;fontSize=12;startSize=8;endSize=8;exitX=0.422;exitY=0.983;exitDx=0;exitDy=0;exitPerimeter=0;entryX=0.406;entryY=-0.029;entryDx=0;entryDy=0;entryPerimeter=0;" edge="1" parent="1" source="CTaRILC3Ur2w_jWTwv6U-2" target="CTaRILC3Ur2w_jWTwv6U-36">
          <mxGeometry relative="1" as="geometry">
            <mxPoint x="593" y="560" as="sourcePoint" />
          </mxGeometry>
        </mxCell>
        <mxCell id="CTaRILC3Ur2w_jWTwv6U-36" value="SHIFT ID" style="ellipse;whiteSpace=wrap;html=1;" vertex="1" parent="1">
          <mxGeometry x="690" y="560" width="120" height="80" as="geometry" />
        </mxCell>
        <mxCell id="CTaRILC3Ur2w_jWTwv6U-37" value="ADMIN ID" style="ellipse;whiteSpace=wrap;html=1;" vertex="1" parent="1">
          <mxGeometry x="880" y="550" width="120" height="80" as="geometry" />
        </mxCell>
        <mxCell id="CTaRILC3Ur2w_jWTwv6U-42" value="" style="edgeStyle=none;curved=1;rounded=0;orthogonalLoop=1;jettySize=auto;html=1;fontSize=12;startSize=8;endSize=8;entryX=1;entryY=0;entryDx=0;entryDy=0;exitX=0.361;exitY=0.972;exitDx=0;exitDy=0;exitPerimeter=0;" edge="1" parent="1" source="CTaRILC3Ur2w_jWTwv6U-3" target="CTaRILC3Ur2w_jWTwv6U-38">
          <mxGeometry relative="1" as="geometry" />
        </mxCell>
        <mxCell id="CTaRILC3Ur2w_jWTwv6U-38" value="START TIME" style="ellipse;whiteSpace=wrap;html=1;" vertex="1" parent="1">
          <mxGeometry x="330" y="380" width="90" height="60" as="geometry" />
        </mxCell>
        <mxCell id="CTaRILC3Ur2w_jWTwv6U-39" value="END TIME" style="ellipse;whiteSpace=wrap;html=1;" vertex="1" parent="1">
          <mxGeometry x="450" y="380" width="90" height="60" as="geometry" />
        </mxCell>
        <mxCell id="CTaRILC3Ur2w_jWTwv6U-46" value="" style="endArrow=classic;html=1;rounded=0;fontSize=12;startSize=8;endSize=8;curved=1;exitX=0;exitY=1;exitDx=0;exitDy=0;" edge="1" parent="1" source="CTaRILC3Ur2w_jWTwv6U-18">
          <mxGeometry relative="1" as="geometry">
            <mxPoint x="250" y="280" as="sourcePoint" />
            <mxPoint x="790" y="460" as="targetPoint" />
          </mxGeometry>
        </mxCell>
        <mxCell id="CTaRILC3Ur2w_jWTwv6U-47" value="Assigns" style="edgeLabel;resizable=0;html=1;fontSize=12;;align=center;verticalAlign=middle;" connectable="0" vertex="1" parent="CTaRILC3Ur2w_jWTwv6U-46">
          <mxGeometry relative="1" as="geometry" />
        </mxCell>
        <mxCell id="CTaRILC3Ur2w_jWTwv6U-48" value="Source" style="edgeLabel;resizable=0;html=1;fontSize=12;;align=left;verticalAlign=bottom;" connectable="0" vertex="1" parent="CTaRILC3Ur2w_jWTwv6U-46">
          <mxGeometry x="-1" relative="1" as="geometry" />
        </mxCell>
        <mxCell id="CTaRILC3Ur2w_jWTwv6U-50" value="" style="edgeStyle=none;curved=1;rounded=0;orthogonalLoop=1;jettySize=auto;html=1;fontSize=12;startSize=8;endSize=8;entryX=0.211;entryY=0.154;entryDx=0;entryDy=0;entryPerimeter=0;exitX=0.75;exitY=1;exitDx=0;exitDy=0;" edge="1" parent="1" source="CTaRILC3Ur2w_jWTwv6U-2" target="CTaRILC3Ur2w_jWTwv6U-37">
          <mxGeometry relative="1" as="geometry">
            <mxPoint x="623" y="529" as="sourcePoint" />
            <mxPoint x="595" y="530" as="targetPoint" />
          </mxGeometry>
        </mxCell>
        <mxCell id="CTaRILC3Ur2w_jWTwv6U-51" value="" style="edgeStyle=none;curved=1;rounded=0;orthogonalLoop=1;jettySize=auto;html=1;fontSize=12;startSize=8;endSize=8;entryX=0.917;entryY=0.125;entryDx=0;entryDy=0;entryPerimeter=0;exitX=0;exitY=1;exitDx=0;exitDy=0;" edge="1" parent="1" source="CTaRILC3Ur2w_jWTwv6U-2" target="CTaRILC3Ur2w_jWTwv6U-34">
          <mxGeometry relative="1" as="geometry">
            <mxPoint x="613" y="580" as="sourcePoint" />
            <mxPoint x="605" y="540" as="targetPoint" />
          </mxGeometry>
        </mxCell>
        <mxCell id="CTaRILC3Ur2w_jWTwv6U-53" value="" style="edgeStyle=none;curved=1;rounded=0;orthogonalLoop=1;jettySize=auto;html=1;fontSize=12;startSize=8;endSize=8;entryX=0;entryY=0.25;entryDx=0;entryDy=0;" edge="1" parent="1" source="CTaRILC3Ur2w_jWTwv6U-52" target="CTaRILC3Ur2w_jWTwv6U-18">
          <mxGeometry relative="1" as="geometry" />
        </mxCell>
        <mxCell id="CTaRILC3Ur2w_jWTwv6U-52" value="One to One" style="rhombus;whiteSpace=wrap;html=1;" vertex="1" parent="1">
          <mxGeometry x="400" y="120" width="80" height="80" as="geometry" />
        </mxCell>
        <mxCell id="CTaRILC3Ur2w_jWTwv6U-54" value="" style="endArrow=classic;html=1;rounded=0;fontSize=12;startSize=8;endSize=8;curved=1;exitX=1;exitY=0.5;exitDx=0;exitDy=0;entryX=0;entryY=0.5;entryDx=0;entryDy=0;" edge="1" parent="1" source="CTaRILC3Ur2w_jWTwv6U-1" target="CTaRILC3Ur2w_jWTwv6U-52">
          <mxGeometry width="50" height="50" relative="1" as="geometry">
            <mxPoint x="220" y="300" as="sourcePoint" />
            <mxPoint x="270" y="250" as="targetPoint" />
          </mxGeometry>
        </mxCell>
      </root>
    </mxGraphModel>
  </diagram>
  <diagram id="qNFUWZ11y9CzJUavoAzD" name="Page-2">
    <mxGraphModel dx="1418" dy="557" grid="0" gridSize="10" guides="1" tooltips="1" connect="1" arrows="1" fold="1" page="0" pageScale="1" pageWidth="827" pageHeight="1169" math="0" shadow="0">
      <root>
        <mxCell id="0" />
        <mxCell id="1" parent="0" />
        <mxCell id="Xp3G0Agn6b5BmKwedtrH-2" value="STAFF" style="shape=umlActor;verticalLabelPosition=bottom;verticalAlign=top;html=1;outlineConnect=0;" vertex="1" parent="1">
          <mxGeometry x="-124" y="153" width="30" height="60" as="geometry" />
        </mxCell>
        <mxCell id="Xp3G0Agn6b5BmKwedtrH-3" value="AUTHENTICATION" style="ellipse;whiteSpace=wrap;html=1;" vertex="1" parent="1">
          <mxGeometry x="86" width="134" height="68" as="geometry" />
        </mxCell>
        <mxCell id="Xp3G0Agn6b5BmKwedtrH-4" value="SHIFT ASSIGNMENT" style="ellipse;whiteSpace=wrap;html=1;" vertex="1" parent="1">
          <mxGeometry x="78" y="98" width="154" height="80" as="geometry" />
        </mxCell>
        <mxCell id="Xp3G0Agn6b5BmKwedtrH-5" value="REQUEST/EDIT SHIFTS" style="ellipse;whiteSpace=wrap;html=1;" vertex="1" parent="1">
          <mxGeometry x="80" y="218" width="154" height="80" as="geometry" />
        </mxCell>
        <mxCell id="Xp3G0Agn6b5BmKwedtrH-6" value="WORKING REPORT" style="ellipse;whiteSpace=wrap;html=1;" vertex="1" parent="1">
          <mxGeometry x="84" y="328" width="154" height="80" as="geometry" />
        </mxCell>
        <mxCell id="Xp3G0Agn6b5BmKwedtrH-7" value="Admin" style="shape=umlActor;verticalLabelPosition=bottom;verticalAlign=top;html=1;outlineConnect=0;" vertex="1" parent="1">
          <mxGeometry x="458" y="13" width="30" height="60" as="geometry" />
        </mxCell>
        <mxCell id="Xp3G0Agn6b5BmKwedtrH-8" value="" style="endArrow=classic;html=1;rounded=0;fontSize=12;startSize=8;endSize=8;curved=1;entryX=-0.01;entryY=0.799;entryDx=0;entryDy=0;entryPerimeter=0;" edge="1" parent="1" source="Xp3G0Agn6b5BmKwedtrH-2" target="Xp3G0Agn6b5BmKwedtrH-3">
          <mxGeometry width="50" height="50" relative="1" as="geometry">
            <mxPoint x="175" y="225" as="sourcePoint" />
            <mxPoint x="225" y="175" as="targetPoint" />
          </mxGeometry>
        </mxCell>
        <mxCell id="Xp3G0Agn6b5BmKwedtrH-9" value="DATABASE" style="shape=umlActor;verticalLabelPosition=bottom;verticalAlign=top;html=1;outlineConnect=0;" vertex="1" parent="1">
          <mxGeometry x="463" y="221" width="30" height="60" as="geometry" />
        </mxCell>
        <mxCell id="Xp3G0Agn6b5BmKwedtrH-11" value="" style="endArrow=classic;html=1;rounded=0;fontSize=12;startSize=8;endSize=8;curved=1;entryX=0;entryY=0.3333333333333333;entryDx=0;entryDy=0;entryPerimeter=0;exitX=1;exitY=0.5;exitDx=0;exitDy=0;" edge="1" parent="1" source="Xp3G0Agn6b5BmKwedtrH-3" target="Xp3G0Agn6b5BmKwedtrH-9">
          <mxGeometry width="50" height="50" relative="1" as="geometry">
            <mxPoint x="175" y="225" as="sourcePoint" />
            <mxPoint x="225" y="175" as="targetPoint" />
          </mxGeometry>
        </mxCell>
        <mxCell id="Xp3G0Agn6b5BmKwedtrH-12" value="" style="endArrow=classic;html=1;rounded=0;fontSize=12;startSize=8;endSize=8;curved=1;exitX=0;exitY=0.3333333333333333;exitDx=0;exitDy=0;exitPerimeter=0;" edge="1" parent="1" source="Xp3G0Agn6b5BmKwedtrH-7">
          <mxGeometry width="50" height="50" relative="1" as="geometry">
            <mxPoint x="170" y="88" as="sourcePoint" />
            <mxPoint x="220" y="38" as="targetPoint" />
          </mxGeometry>
        </mxCell>
        <mxCell id="Xp3G0Agn6b5BmKwedtrH-14" value="" style="endArrow=classic;html=1;rounded=0;fontSize=12;startSize=8;endSize=8;curved=1;entryX=1;entryY=0.5;entryDx=0;entryDy=0;exitX=0.5;exitY=0.5;exitDx=0;exitDy=0;exitPerimeter=0;" edge="1" parent="1" source="Xp3G0Agn6b5BmKwedtrH-7" target="Xp3G0Agn6b5BmKwedtrH-4">
          <mxGeometry width="50" height="50" relative="1" as="geometry">
            <mxPoint x="458" y="49" as="sourcePoint" />
            <mxPoint x="298" y="111" as="targetPoint" />
          </mxGeometry>
        </mxCell>
        <mxCell id="Xp3G0Agn6b5BmKwedtrH-15" value="" style="endArrow=classic;html=1;rounded=0;fontSize=12;startSize=8;endSize=8;curved=1;exitX=0.5;exitY=0.5;exitDx=0;exitDy=0;exitPerimeter=0;" edge="1" parent="1">
          <mxGeometry width="50" height="50" relative="1" as="geometry">
            <mxPoint x="78" y="139" as="sourcePoint" />
            <mxPoint x="-99" y="200" as="targetPoint" />
          </mxGeometry>
        </mxCell>
        <mxCell id="Xp3G0Agn6b5BmKwedtrH-16" value="" style="endArrow=classic;html=1;rounded=0;fontSize=12;startSize=8;endSize=8;curved=1;exitX=1;exitY=1;exitDx=0;exitDy=0;exitPerimeter=0;entryX=0;entryY=0.379;entryDx=0;entryDy=0;entryPerimeter=0;" edge="1" parent="1" source="Xp3G0Agn6b5BmKwedtrH-2" target="Xp3G0Agn6b5BmKwedtrH-5">
          <mxGeometry width="50" height="50" relative="1" as="geometry">
            <mxPoint x="248" y="161" as="sourcePoint" />
            <mxPoint x="298" y="111" as="targetPoint" />
          </mxGeometry>
        </mxCell>
        <mxCell id="Xp3G0Agn6b5BmKwedtrH-17" value="" style="endArrow=classic;html=1;rounded=0;fontSize=12;startSize=8;endSize=8;curved=1;entryX=0.5;entryY=0.5;entryDx=0;entryDy=0;exitX=0.965;exitY=0.313;exitDx=0;exitDy=0;exitPerimeter=0;entryPerimeter=0;" edge="1" parent="1" source="Xp3G0Agn6b5BmKwedtrH-5" target="Xp3G0Agn6b5BmKwedtrH-7">
          <mxGeometry width="50" height="50" relative="1" as="geometry">
            <mxPoint x="483" y="53" as="sourcePoint" />
            <mxPoint x="242" y="148" as="targetPoint" />
          </mxGeometry>
        </mxCell>
        <mxCell id="Xp3G0Agn6b5BmKwedtrH-18" value="" style="endArrow=classic;html=1;rounded=0;fontSize=12;startSize=8;endSize=8;curved=1;" edge="1" parent="1" source="Xp3G0Agn6b5BmKwedtrH-2" target="Xp3G0Agn6b5BmKwedtrH-6">
          <mxGeometry width="50" height="50" relative="1" as="geometry">
            <mxPoint x="248" y="161" as="sourcePoint" />
            <mxPoint x="298" y="111" as="targetPoint" />
          </mxGeometry>
        </mxCell>
        <mxCell id="Xp3G0Agn6b5BmKwedtrH-19" value="" style="endArrow=classic;html=1;rounded=0;fontSize=12;startSize=8;endSize=8;curved=1;" edge="1" parent="1" target="Xp3G0Agn6b5BmKwedtrH-9">
          <mxGeometry width="50" height="50" relative="1" as="geometry">
            <mxPoint x="232" y="358" as="sourcePoint" />
            <mxPoint x="440" y="501" as="targetPoint" />
          </mxGeometry>
        </mxCell>
      </root>
    </mxGraphModel>
  </diagram>
</mxfile>
